<svg xmlns="http://www.w3.org/2000/svg" id="Calque_2" data-name="Calque 2" viewBox="0 0 633.42 319.88"><defs><style> .cls-1 { fill: #231f20; } .cls-2 { fill: #03834d; } </style></defs><g id="Layer_1" data-name="Layer 1"><g><path class="cls-2" d="M439.48,163.13c-140.66-52.95-241.21,13.91-241.21,13.91l-4.28-13.37c-13.37,5.35-27.28,9.63-41.18,12.84l13.91,46h44.39c23.53-9.63,125.15-51.88,219.28-20.86,91.99,30.49,189.33-20.32,200.56-37.97-11.23,7.49-80.76,39.04-191.47-.53M12.15,223.03h44.93s15.51-48.67,15.51-48.67c-13.37-4.28-26.21-10.7-37.44-19.79l-23,68.46ZM114.84,51.34l29.95,98.95c13.37-4.28,26.21-9.63,39.04-15.51L138.9,0h-48.14s-52.95,148.69-52.95,148.69c12.84,5.88,26.21,9.63,40.11,10.16l36.9-107.5ZM349.63,102.69v-1.07q3.21,0,3.74-3.21l2.67-13.91h0l-11.77,17.11h-1.07s-4.28-19.25-4.28-19.25h0l-2.67,8.56c-.53,1.6-1.07,3.74-1.07,5.88,0,1.6.53,2.14,3.21,2.67v1.07s-9.63-1.6-9.63-1.6v-1.07c2.14,0,3.21,0,3.74-1.6,1.07-2.14,1.6-4.28,2.14-6.42l2.14-6.95c1.07-3.74,1.07-4.81-2.67-5.35v-1.07s8.02,1.6,8.02,1.6l5.35,16.58,10.7-13.91,8.02,1.6v1.07c-3.21-.53-3.21,0-3.74,2.67l-2.14,13.37c-.53,3.21-.53,3.74,2.67,4.28v1.07s-13.37-2.14-13.37-2.14ZM328.24,87.18c-.53,6.95-6.42,12.3-13.37,11.77h-1.07c-6.95,0-12.3-5.35-12.84-12.3v-1.07c.53-6.95,6.42-12.3,13.37-11.77h1.07c7.49.53,12.84,5.88,12.84,13.37,0-.53,0,0,0,0h0ZM307.91,85.57c-.53,5.88,2.14,11.23,7.49,11.77,3.74,0,6.95-2.67,7.49-9.63.53-6.95-2.67-11.77-6.95-11.77-4.28,0-8.02,3.21-8.02,9.63ZM298.29,91.46c-.53,2.14-1.07,3.74-1.6,5.88-2.14.53-4.81,1.07-7.49,1.07-10.7.53-14.98-5.35-15.51-11.23-.53-7.49,5.35-12.84,14.98-13.37,2.67,0,4.81,0,6.95.53.53,2.14,1.07,3.74,1.07,5.88l-1.6.53c-1.07-3.21-4.28-5.88-7.49-5.35-5.35.53-9.09,5.35-8.56,10.16v.53c.53,6.42,4.28,10.7,9.63,10.16,3.21-.53,6.42-2.67,7.49-5.88l2.14,1.07ZM260.31,101.08v-1.07c2.67-.53,3.21-1.07,2.67-3.74l-1.6-13.91c-.53-3.21-1.07-3.21-3.74-3.21v-1.07s11.77-1.6,11.77-1.6v1.07c-2.67.53-3.21,1.07-2.67,3.74l1.6,13.37c.53,3.21,1.07,3.21,3.74,3.21v1.07s-11.77,2.14-11.77,2.14ZM252.29,85.04c-1.07-2.67-3.74-4.28-6.42-3.74-2.14,0-3.21,2.14-3.21,3.74h0c.53,2.14,2.14,2.67,5.88,3.74,3.74,1.07,7.49,2.67,8.56,5.88,1.07,3.21-2.14,8.02-8.02,9.09-1.07,0-2.67.53-4.28.53-1.07,0-1.6,0-2.67-.53-1.07-1.6-1.6-3.74-2.14-5.88l1.07-.53c1.07,2.14,4.28,5.35,8.02,4.81,2.14,0,3.21-2.14,3.21-3.74v-.53c-.53-2.14-2.67-3.21-5.35-3.74-4.28-1.07-7.49-2.14-8.02-5.88-.53-3.74,2.14-7.49,7.49-8.56,1.6-.53,3.74-.53,5.35,0,.53,1.07,1.07,2.67,1.6,4.81l-1.07.53ZM229.83,108.04l-.53-1.07c2.14-1.07,2.14-1.6,1.07-2.67l-2.67-3.21-7.49,2.14c0,1.07,0,2.67,0,4.28,0,1.6,0,2.14,3.21,1.6l.53,1.07-8.56,2.14-.53-1.07c2.67-1.07,2.67-1.6,3.21-4.81l2.67-19.79,1.6-.53c4.28,5.35,8.56,10.7,12.3,16.05,2.14,2.67,2.67,2.67,5.35,2.67l.53,1.07-10.7,2.14ZM221.8,92.53h0c-.53,2.67-.53,5.35-1.07,8.56l5.88-1.6-4.81-6.95ZM16.96,135.85s49.21,57.23,173.82-2.67c124.62-59.9,218.75,3.21,218.75,4.28-39.58-5.88-78.09-29.95-209.66,22.46-131.57,52.41-182.91-24.07-182.91-24.07Z"></path><g><path class="cls-1" d="M.74,319.32c-.35-.15-.41-.26-.41-.74,0-1.2.09-2.5.11-2.85.02-.33.09-.57.26-.57.2,0,.22.2.22.37,0,.28.09.74.2,1.11.48,1.61,1.76,2.2,3.11,2.2,1.96,0,2.91-1.33,2.91-2.48,0-1.07-.33-2.07-2.13-3.48l-1-.78c-2.39-1.87-3.22-3.39-3.22-5.15,0-2.39,2-4.11,5.02-4.11,1.41,0,2.33.22,2.89.37.2.04.3.11.3.26,0,.28-.09.91-.09,2.61,0,.48-.07.65-.24.65-.15,0-.22-.13-.22-.39,0-.2-.11-.87-.56-1.44-.33-.41-.96-1.07-2.37-1.07-1.61,0-2.59.94-2.59,2.24,0,1,.5,1.76,2.3,3.13l.61.46c2.63,1.98,3.57,3.48,3.57,5.54,0,1.26-.48,2.76-2.04,3.78-1.09.7-2.3.89-3.46.89-1.26,0-2.24-.15-3.17-.57Z"></path><path class="cls-1" d="M12.22,311.36c0-3.72,2.46-8.52,8.98-8.52,5.41,0,8.78,3.15,8.78,8.13s-3.48,8.92-9,8.92c-6.24,0-8.76-4.68-8.76-8.52ZM26.94,311.77c0-4.87-2.81-7.89-6.37-7.89-2.5,0-5.35,1.39-5.35,6.81,0,4.52,2.5,8.11,6.68,8.11,1.52,0,5.04-.74,5.04-7.02Z"></path><path class="cls-1" d="M35.06,317.51c-2.13-1.87-2.7-4.31-2.7-6.42,0-1.48.46-4.04,2.54-5.96,1.57-1.43,3.63-2.3,6.87-2.3,1.35,0,2.15.09,3.15.22.83.11,1.52.3,2.17.37.24.02.33.13.33.26,0,.17-.06.43-.11,1.2-.04.72-.02,1.91-.07,2.35-.02.33-.06.5-.26.5-.17,0-.22-.17-.22-.48-.02-.67-.3-1.43-.85-2-.72-.76-2.41-1.35-4.41-1.35-1.89,0-3.13.48-4.09,1.35-1.59,1.46-2,3.52-2,5.63,0,5.17,3.94,7.74,6.85,7.74,1.94,0,3.11-.22,3.98-1.22.37-.41.65-1.04.74-1.43.06-.35.11-.44.28-.44.15,0,.2.15.2.33,0,.26-.26,2.15-.48,2.89-.11.37-.2.48-.57.63-.87.35-2.52.5-3.91.5-2.98,0-5.48-.65-7.46-2.37Z"></path><path class="cls-1" d="M52.13,309.44c0-3.3,0-3.91-.04-4.61-.04-.74-.26-1.11-.74-1.22-.24-.07-.52-.09-.78-.09-.22,0-.35-.04-.35-.22,0-.13.17-.17.52-.17.83,0,2.2.07,2.83.07.54,0,1.83-.07,2.65-.07.28,0,.46.04.46.17,0,.17-.13.22-.35.22s-.39.02-.65.07c-.59.11-.76.48-.8,1.24-.04.7-.04,1.3-.04,4.61v3.83c0,2.11,0,3.83.09,4.76.07.59.22.98.87,1.07.3.04.78.09,1.11.09.24,0,.35.07.35.17,0,.15-.17.22-.41.22-1.44,0-2.81-.07-3.39-.07-.5,0-1.87.07-2.74.07-.28,0-.44-.07-.44-.22,0-.11.09-.17.35-.17.33,0,.59-.04.78-.09.44-.09.57-.46.63-1.09.11-.91.11-2.63.11-4.74v-3.83Z"></path><path class="cls-1" d="M61.95,309.44c0-3.3,0-3.91-.04-4.61-.04-.74-.22-1.09-.94-1.24-.17-.04-.54-.07-.85-.07-.24,0-.37-.04-.37-.2s.15-.2.48-.2c.59,0,1.22.02,1.76.02.57.02,1.07.04,1.37.04.7,0,5.02,0,5.44-.02.41-.04.76-.09.94-.13.11-.02.24-.09.35-.09s.13.09.13.2c0,.15-.11.41-.17,1.41-.02.22-.07,1.17-.11,1.43-.02.11-.06.24-.22.24s-.2-.11-.2-.3c0-.15-.02-.52-.13-.78-.15-.39-.37-.65-1.46-.78-.37-.04-2.65-.09-3.09-.09-.11,0-.15.07-.15.22v5.5c0,.15.02.24.15.24.48,0,2.98,0,3.48-.04.52-.04.85-.11,1.04-.33.15-.17.24-.28.35-.28.09,0,.15.04.15.17s-.09.48-.17,1.59c-.02.44-.09,1.3-.09,1.46,0,.17,0,.41-.2.41-.15,0-.2-.09-.2-.2-.02-.22-.02-.5-.09-.78-.11-.43-.41-.76-1.22-.85-.41-.04-2.57-.07-3.09-.07-.11,0-.13.09-.13.22v1.72c0,.74-.02,2.74,0,3.37.04,1.5.39,1.83,2.61,1.83.57,0,1.48,0,2.04-.26s.83-.72.98-1.61c.04-.24.09-.33.24-.33.17,0,.17.17.17.39,0,.5-.17,1.98-.28,2.41-.15.57-.35.57-1.17.57-1.63,0-2.83-.04-3.76-.07-.94-.04-1.61-.07-2.26-.07-.24,0-.72,0-1.24.02-.5,0-1.07.04-1.5.04-.28,0-.44-.07-.44-.22,0-.11.09-.17.35-.17.33,0,.59-.04.78-.09.44-.09.54-.57.63-1.2.11-.91.11-2.63.11-4.63v-3.83ZM69.06,299.68c.13.26,0,.33-.11.33s-.3-.04-.74,0c-1.2.15-2.91.85-3.72,1.28-.17.09-.33.17-.37.17s-.13-.04-.13-.13.09-.17.2-.28c.87-.83,3.15-2.52,3.5-2.74.22-.15.37-.2.44-.2.15,0,.2.06.3.26.17.3.37.72.63,1.3Z"></path><path class="cls-1" d="M78.59,304.36l-3.24.09c-1.26.04-1.78.15-2.11.63-.22.33-.33.59-.37.76s-.11.26-.24.26c-.15,0-.2-.11-.2-.35,0-.35.41-2.33.46-2.5.06-.28.13-.41.26-.41.17,0,.39.22.94.26.63.07,1.46.11,2.17.11h8.61c.7,0,1.17-.07,1.5-.11.33-.06.5-.11.59-.11.15,0,.17.13.17.46,0,.46-.07,1.96-.07,2.52-.02.22-.07.35-.2.35-.17,0-.22-.11-.24-.44l-.02-.24c-.04-.57-.63-1.17-2.57-1.22l-2.74-.07v8.92c0,2,0,3.72.11,4.65.06.61.2,1.09.85,1.17.3.04.78.09,1.11.09.24,0,.35.07.35.17,0,.15-.17.22-.41.22-1.44,0-2.8-.07-3.41-.07-.5,0-1.87.07-2.74.07-.28,0-.44-.07-.44-.22,0-.11.09-.17.35-.17.33,0,.59-.04.78-.09.43-.09.57-.57.63-1.2.11-.91.11-2.63.11-4.63v-8.92Z"></path><path class="cls-1" d="M91.13,309.44c0-3.3,0-3.91-.04-4.61-.04-.74-.22-1.09-.94-1.24-.17-.04-.54-.07-.85-.07-.24,0-.37-.04-.37-.2s.15-.2.48-.2c.59,0,1.22.02,1.76.02.57.02,1.07.04,1.37.04.7,0,5.02,0,5.44-.02.41-.04.76-.09.94-.13.11-.02.24-.09.35-.09s.13.09.13.2c0,.15-.11.41-.17,1.41-.02.22-.07,1.17-.11,1.43-.02.11-.07.24-.22.24s-.2-.11-.2-.3c0-.15-.02-.52-.13-.78-.15-.39-.37-.65-1.46-.78-.37-.04-2.65-.09-3.09-.09-.11,0-.15.07-.15.22v5.5c0,.15.02.24.15.24.48,0,2.98,0,3.48-.04.52-.04.85-.11,1.04-.33.15-.17.24-.28.35-.28.09,0,.15.04.15.17s-.09.48-.17,1.59c-.02.44-.09,1.3-.09,1.46,0,.17,0,.41-.2.41-.15,0-.2-.09-.2-.2-.02-.22-.02-.5-.09-.78-.11-.43-.41-.76-1.22-.85-.41-.04-2.57-.07-3.09-.07-.11,0-.13.09-.13.22v1.72c0,.74-.02,2.74,0,3.37.04,1.5.39,1.83,2.61,1.83.57,0,1.48,0,2.04-.26s.83-.72.98-1.61c.04-.24.09-.33.24-.33.17,0,.17.17.17.39,0,.5-.17,1.98-.28,2.41-.15.57-.35.57-1.17.57-1.63,0-2.83-.04-3.76-.07-.94-.04-1.61-.07-2.26-.07-.24,0-.72,0-1.24.02-.5,0-1.07.04-1.5.04-.28,0-.44-.07-.44-.22,0-.11.09-.17.35-.17.33,0,.59-.04.78-.09.44-.09.54-.57.63-1.2.11-.91.11-2.63.11-4.63v-3.83ZM98.24,299.68c.13.26,0,.33-.11.33s-.3-.04-.74,0c-1.2.15-2.91.85-3.72,1.28-.17.09-.33.17-.37.17s-.13-.04-.13-.13.09-.17.2-.28c.87-.83,3.15-2.52,3.5-2.74.22-.15.37-.2.44-.2.15,0,.2.06.3.26.17.3.37.72.63,1.3Z"></path><path class="cls-1" d="M112.26,313.9c-.11,0-.15.04-.2.17l-1.17,3.11c-.22.54-.33,1.07-.33,1.33,0,.39.2.67.87.67h.33c.26,0,.33.04.33.17,0,.17-.13.22-.37.22-.7,0-1.63-.07-2.3-.07-.24,0-1.44.07-2.57.07-.28,0-.41-.04-.41-.22,0-.13.09-.17.26-.17.2,0,.5-.02.67-.04,1-.13,1.41-.87,1.85-1.96l5.46-13.66c.26-.63.39-.87.61-.87.2,0,.33.2.54.7.52,1.2,4,10.07,5.39,13.37.83,1.96,1.46,2.26,1.91,2.37.33.07.65.09.91.09.17,0,.28.02.28.17,0,.17-.2.22-1,.22s-2.37,0-4.11-.04c-.39-.02-.65-.02-.65-.17,0-.13.09-.17.3-.2.15-.04.3-.24.2-.5l-1.74-4.61c-.04-.11-.11-.15-.22-.15h-4.85ZM116.69,312.81c.11,0,.13-.07.11-.13l-1.96-5.37c-.02-.09-.04-.2-.11-.2s-.11.11-.13.2l-2,5.35c-.02.09,0,.15.09.15h4Z"></path><path class="cls-1" d="M129.32,313.27c0,2.78,0,4.28.46,4.67.37.33.94.48,2.63.48,1.15,0,2-.02,2.54-.61.26-.28.52-.89.57-1.3.02-.2.07-.33.24-.33.15,0,.17.11.17.37,0,.24-.15,1.87-.33,2.5-.13.48-.24.59-1.37.59-1.57,0-2.7-.04-3.67-.07-.98-.04-1.76-.07-2.65-.07-.24,0-.72,0-1.24.02-.5,0-1.07.04-1.5.04-.28,0-.44-.07-.44-.22,0-.11.09-.17.35-.17.33,0,.59-.04.78-.09.44-.09.54-.57.63-1.2.11-.91.11-2.63.11-4.63v-3.83c0-3.3,0-3.91-.04-4.61-.04-.74-.22-1.09-.94-1.24-.17-.04-.43-.07-.72-.07-.24,0-.37-.04-.37-.2s.15-.2.48-.2c1.02,0,2.39.07,2.98.07.52,0,2.11-.07,2.96-.07.3,0,.46.04.46.2s-.13.2-.39.2c-.24,0-.59.02-.85.07-.59.11-.76.48-.8,1.24-.04.7-.04,1.3-.04,4.61v3.83Z"></path><path class="cls-1" d="M152.85,318.12c0,.59-.02.63-.28.78-1.41.74-3.54.98-5.24.98-5.33,0-10.05-2.52-10.05-8.52,0-3.48,1.8-5.91,3.78-7.11,2.09-1.26,4.02-1.41,5.85-1.41,1.5,0,3.41.26,3.85.35.46.09,1.22.22,1.72.24.26.02.3.11.3.26,0,.24-.15.85-.15,3.57,0,.35-.06.46-.24.46-.15,0-.2-.11-.22-.28-.06-.5-.17-1.2-.74-1.8-.65-.7-2.39-1.7-4.85-1.7-1.2,0-2.78.09-4.31,1.35-1.22,1.02-2,2.65-2,5.33,0,4.67,2.98,8.18,7.57,8.18.57,0,1.33,0,1.85-.24.33-.15.41-.43.41-.8v-2.04c0-1.09,0-1.91-.02-2.57-.02-.74-.22-1.09-.94-1.24-.17-.04-.54-.07-.85-.07-.2,0-.33-.04-.33-.17,0-.17.15-.22.46-.22,1.13,0,2.5.07,3.15.07s1.83-.07,2.54-.07c.28,0,.44.04.44.22,0,.13-.13.17-.28.17-.17,0-.33.02-.59.07-.59.11-.8.48-.83,1.24-.02.65-.02,1.52-.02,2.61v2.39Z"></path><path class="cls-1" d="M158.91,309.44c0-3.3,0-3.91-.04-4.61-.04-.74-.22-1.09-.94-1.24-.17-.04-.54-.07-.85-.07-.24,0-.37-.04-.37-.2s.15-.2.48-.2c.59,0,1.22.02,1.76.02.57.02,1.07.04,1.37.04.7,0,5.02,0,5.44-.02.41-.04.76-.09.94-.13.11-.02.24-.09.35-.09s.13.09.13.2c0,.15-.11.41-.17,1.41-.02.22-.07,1.17-.11,1.43-.02.11-.06.24-.22.24s-.2-.11-.2-.3c0-.15-.02-.52-.13-.78-.15-.39-.37-.65-1.46-.78-.37-.04-2.65-.09-3.09-.09-.11,0-.15.07-.15.22v5.5c0,.15.02.24.15.24.48,0,2.98,0,3.48-.04.52-.04.85-.11,1.04-.33.15-.17.24-.28.35-.28.09,0,.15.04.15.17s-.09.48-.17,1.59c-.02.44-.09,1.3-.09,1.46,0,.17,0,.41-.2.41-.15,0-.2-.09-.2-.2-.02-.22-.02-.5-.09-.78-.11-.43-.41-.76-1.22-.85-.41-.04-2.57-.07-3.09-.07-.11,0-.13.09-.13.22v1.72c0,.74-.02,2.74,0,3.37.04,1.5.39,1.83,2.61,1.83.57,0,1.48,0,2.04-.26s.83-.72.98-1.61c.04-.24.09-.33.24-.33.17,0,.17.17.17.39,0,.5-.17,1.98-.28,2.41-.15.57-.35.57-1.17.57-1.63,0-2.83-.04-3.76-.07-.94-.04-1.61-.07-2.26-.07-.24,0-.72,0-1.24.02-.5,0-1.07.04-1.5.04-.28,0-.44-.07-.44-.22,0-.11.09-.17.35-.17.33,0,.59-.04.78-.09.44-.09.54-.57.63-1.2.11-.91.11-2.63.11-4.63v-3.83ZM166.02,299.68c.13.26,0,.33-.11.33s-.3-.04-.74,0c-1.2.15-2.91.85-3.72,1.28-.17.09-.33.17-.37.17s-.13-.04-.13-.13.09-.17.2-.28c.87-.83,3.15-2.52,3.5-2.74.22-.15.37-.2.44-.2.15,0,.2.06.3.26.17.3.37.72.63,1.3Z"></path><path class="cls-1" d="M172.65,309.44c0-3.3,0-3.91-.04-4.61-.04-.74-.22-1.09-.94-1.24-.17-.04-.54-.07-.85-.07-.24,0-.37-.04-.37-.2s.15-.2.48-.2c1.15,0,2.52.07,2.98.07.74,0,2.39-.07,3.07-.07,1.37,0,2.83.13,4,.93.61.41,1.48,1.52,1.48,2.98,0,1.61-.67,3.09-2.87,4.87,1.94,2.44,3.44,4.37,4.72,5.72,1.22,1.26,2.11,1.41,2.44,1.48.24.04.44.07.61.07s.26.07.26.17c0,.17-.15.22-.41.22h-2.07c-1.22,0-1.76-.11-2.33-.41-.94-.5-1.76-1.52-2.98-3.2-.87-1.2-1.87-2.67-2.15-3-.11-.13-.24-.15-.39-.15l-1.89-.04c-.11,0-.17.04-.17.17v.3c0,2.02,0,3.74.11,4.65.07.63.2,1.11.85,1.2.33.04.8.09,1.07.09.17,0,.26.07.26.17,0,.15-.15.22-.44.22-1.26,0-2.87-.07-3.2-.07-.41,0-1.78.07-2.65.07-.28,0-.44-.07-.44-.22,0-.11.09-.17.35-.17.33,0,.59-.04.78-.09.44-.09.54-.57.63-1.2.11-.91.11-2.63.11-4.63v-3.83ZM175.21,311.16c0,.24.04.33.2.39.46.15,1.11.22,1.65.22.87,0,1.15-.09,1.54-.37.65-.48,1.28-1.48,1.28-3.26,0-3.09-2.04-3.98-3.33-3.98-.54,0-.94.02-1.15.09-.15.04-.2.13-.2.3v6.61Z"></path><path class="cls-1" d="M186.58,311.36c0-3.72,2.46-8.52,8.98-8.52,5.41,0,8.78,3.15,8.78,8.13s-3.48,8.92-9,8.92c-6.24,0-8.76-4.68-8.76-8.52ZM201.3,311.77c0-4.87-2.81-7.89-6.37-7.89-2.5,0-5.35,1.39-5.35,6.81,0,4.52,2.5,8.11,6.68,8.11,1.52,0,5.04-.74,5.04-7.02Z"></path><path class="cls-1" d="M219.86,310.05c.39,0,.7.04.7.3,0,.3-.37.37-.98.48-.87.13-4.85.83-5.61,1.04-.44.11-.78.35-.96.35s-.22-.17-.17-.39l.33-1.5c.07-.26.15-.28.52-.28h6.18Z"></path><path class="cls-1" d="M230.19,319.32c-.35-.15-.41-.26-.41-.74,0-1.2.09-2.5.11-2.85.02-.33.09-.57.26-.57.2,0,.22.2.22.37,0,.28.09.74.2,1.11.48,1.61,1.76,2.2,3.11,2.2,1.96,0,2.91-1.33,2.91-2.48,0-1.07-.33-2.07-2.13-3.48l-1-.78c-2.39-1.87-3.22-3.39-3.22-5.15,0-2.39,2-4.11,5.02-4.11,1.41,0,2.33.22,2.89.37.2.04.3.11.3.26,0,.28-.09.91-.09,2.61,0,.48-.07.65-.24.65-.15,0-.22-.13-.22-.39,0-.2-.11-.87-.56-1.44-.33-.41-.96-1.07-2.37-1.07-1.61,0-2.59.94-2.59,2.24,0,1,.5,1.76,2.3,3.13l.61.46c2.63,1.98,3.57,3.48,3.57,5.54,0,1.26-.48,2.76-2.04,3.78-1.09.7-2.3.89-3.46.89-1.26,0-2.24-.15-3.17-.57Z"></path><path class="cls-1" d="M244.91,313.9c-.11,0-.15.04-.2.17l-1.17,3.11c-.22.54-.33,1.07-.33,1.33,0,.39.2.67.87.67h.33c.26,0,.33.04.33.17,0,.17-.13.22-.37.22-.7,0-1.63-.07-2.3-.07-.24,0-1.44.07-2.57.07-.28,0-.41-.04-.41-.22,0-.13.09-.17.26-.17.2,0,.5-.02.67-.04,1-.13,1.41-.87,1.85-1.96l5.46-13.66c.26-.63.39-.87.61-.87.2,0,.33.2.54.7.52,1.2,4,10.07,5.39,13.37.83,1.96,1.46,2.26,1.91,2.37.33.07.65.09.91.09.17,0,.28.02.28.17,0,.17-.2.22-1,.22s-2.37,0-4.11-.04c-.39-.02-.65-.02-.65-.17,0-.13.09-.17.3-.2.15-.04.3-.24.2-.5l-1.74-4.61c-.04-.11-.11-.15-.22-.15h-4.85ZM249.34,312.81c.11,0,.13-.07.11-.13l-1.96-5.37c-.02-.09-.04-.2-.11-.2s-.11.11-.13.2l-2,5.35c-.02.09,0,.15.09.15h4Z"></path><path class="cls-1" d="M256.88,311.36c0-3.72,2.46-8.52,8.98-8.52,5.41,0,8.78,3.15,8.78,8.13s-3.48,8.92-9,8.92c-6.24,0-8.76-4.68-8.76-8.52ZM271.6,311.77c0-4.87-2.81-7.89-6.37-7.89-2.5,0-5.35,1.39-5.35,6.81,0,4.52,2.5,8.11,6.68,8.11,1.52,0,5.04-.74,5.04-7.02Z"></path><path class="cls-1" d="M278.47,309.44c0-3.3,0-3.91-.04-4.61-.04-.74-.22-1.09-.94-1.24-.17-.04-.54-.07-.85-.07-.24,0-.37-.04-.37-.2s.15-.2.48-.2c1.15,0,2.52.07,3.17.07.52,0,1.89-.07,2.67-.07.33,0,.48.04.48.2s-.13.2-.35.2c-.24,0-.37.02-.63.07-.59.11-.76.48-.8,1.24-.04.7-.04,1.3-.04,4.61v3.04c0,3.15.63,4.48,1.7,5.35.98.8,1.98.89,2.72.89.96,0,2.13-.3,3-1.17,1.2-1.2,1.26-3.15,1.26-5.39v-2.72c0-3.3,0-3.91-.04-4.61-.04-.74-.22-1.09-.94-1.24-.17-.04-.54-.07-.78-.07s-.37-.04-.37-.2.15-.2.46-.2c1.11,0,2.48.07,2.5.07.26,0,1.63-.07,2.48-.07.3,0,.46.04.46.2s-.13.2-.39.2c-.24,0-.37.02-.63.07-.59.11-.76.48-.8,1.24-.04.7-.04,1.3-.04,4.61v2.33c0,2.41-.24,4.98-2.07,6.54-1.54,1.33-3.11,1.57-4.52,1.57-1.15,0-3.24-.07-4.83-1.5-1.11-1-1.94-2.61-1.94-5.76v-3.17Z"></path><path class="cls-1" d="M297.93,309.44c0-3.3,0-3.91-.04-4.61-.04-.74-.22-1.09-.94-1.24-.17-.04-.54-.07-.85-.07-.24,0-.37-.04-.37-.2s.15-.2.48-.2c1.15,0,2.52.07,3.13.07.67,0,2.04-.07,3.35-.07,2.72,0,6.35,0,8.72,2.48,1.09,1.13,2.11,2.94,2.11,5.52,0,2.74-1.15,4.83-2.37,6.07-1,1.02-3.26,2.57-7.28,2.57-.78,0-1.67-.07-2.5-.13-.83-.07-1.59-.13-2.13-.13-.24,0-.72,0-1.24.02-.5,0-1.07.04-1.5.04-.28,0-.44-.07-.44-.22,0-.11.09-.17.35-.17.33,0,.59-.04.78-.09.44-.09.54-.57.63-1.2.11-.91.11-2.63.11-4.63v-3.83ZM300.64,311.84c0,2.3.02,3.98.04,4.39.02.54.06,1.41.24,1.65.28.41,1.13.87,2.85.87,2.22,0,3.7-.44,5-1.57,1.39-1.2,1.83-3.17,1.83-5.42,0-2.76-1.15-4.54-2.09-5.44-2-1.91-4.48-2.17-6.18-2.17-.44,0-1.24.07-1.41.15-.2.09-.26.2-.26.44-.02.74-.02,2.63-.02,4.35v2.74Z"></path><path class="cls-1" d="M318.06,309.44c0-3.3,0-3.91-.04-4.61-.04-.74-.26-1.11-.74-1.22-.24-.07-.52-.09-.78-.09-.22,0-.35-.04-.35-.22,0-.13.17-.17.52-.17.83,0,2.2.07,2.83.07.54,0,1.83-.07,2.65-.07.28,0,.46.04.46.17,0,.17-.13.22-.35.22s-.39.02-.65.07c-.59.11-.76.48-.8,1.24-.04.7-.04,1.3-.04,4.61v3.83c0,2.11,0,3.83.09,4.76.07.59.22.98.87,1.07.3.04.78.09,1.11.09.24,0,.35.07.35.17,0,.15-.17.22-.41.22-1.43,0-2.8-.07-3.39-.07-.5,0-1.87.07-2.74.07-.28,0-.44-.07-.44-.22,0-.11.09-.17.35-.17.33,0,.59-.04.78-.09.43-.09.57-.46.63-1.09.11-.91.11-2.63.11-4.74v-3.83Z"></path><path class="cls-1" d="M327.88,309.44c0-3.3,0-3.91-.04-4.61-.04-.74-.22-1.09-.93-1.24-.17-.04-.54-.07-.85-.07-.24,0-.37-.04-.37-.2s.15-.2.48-.2c.59,0,1.22.02,1.76.02.57.02,1.07.04,1.37.04.7,0,5.02,0,5.44-.02.41-.04.76-.09.94-.13.11-.02.24-.09.35-.09s.13.09.13.2c0,.15-.11.41-.17,1.41-.02.22-.06,1.17-.11,1.43-.02.11-.07.24-.22.24s-.2-.11-.2-.3c0-.15-.02-.52-.13-.78-.15-.39-.37-.65-1.46-.78-.37-.04-2.65-.09-3.09-.09-.11,0-.15.07-.15.22v5.5c0,.15.02.24.15.24.48,0,2.98,0,3.48-.04.52-.04.85-.11,1.04-.33.15-.17.24-.28.35-.28.09,0,.15.04.15.17s-.09.48-.17,1.59c-.02.44-.09,1.3-.09,1.46,0,.17,0,.41-.2.41-.15,0-.2-.09-.2-.2-.02-.22-.02-.5-.09-.78-.11-.43-.41-.76-1.22-.85-.41-.04-2.57-.07-3.09-.07-.11,0-.13.09-.13.22v1.72c0,.74-.02,2.74,0,3.37.04,1.5.39,1.83,2.61,1.83.57,0,1.48,0,2.04-.26s.83-.72.98-1.61c.04-.24.09-.33.24-.33.17,0,.17.17.17.39,0,.5-.17,1.98-.28,2.41-.15.57-.35.57-1.17.57-1.63,0-2.83-.04-3.76-.07-.93-.04-1.61-.07-2.26-.07-.24,0-.72,0-1.24.02-.5,0-1.07.04-1.5.04-.28,0-.43-.07-.43-.22,0-.11.09-.17.35-.17.33,0,.59-.04.78-.09.43-.09.54-.57.63-1.2.11-.91.11-2.63.11-4.63v-3.83Z"></path><path class="cls-1" d="M342.84,316.62c.04,1.7.33,2.26.76,2.41.37.13.78.15,1.13.15.24,0,.37.04.37.17,0,.17-.2.22-.5.22-1.41,0-2.28-.07-2.7-.07-.2,0-1.22.07-2.35.07-.28,0-.48-.02-.48-.22,0-.13.13-.17.35-.17.28,0,.67-.02.98-.11.57-.17.65-.8.67-2.7l.2-12.87c0-.44.07-.74.28-.74.24,0,.43.28.8.67.26.28,3.57,3.83,6.74,6.98,1.48,1.48,4.41,4.61,4.78,4.96h.11l-.22-9.76c-.02-1.33-.22-1.74-.74-1.96-.33-.13-.85-.13-1.15-.13-.26,0-.35-.07-.35-.2,0-.17.24-.2.57-.2,1.13,0,2.17.07,2.63.07.24,0,1.07-.07,2.13-.07.28,0,.5.02.5.2,0,.13-.13.2-.39.2-.22,0-.39,0-.65.07-.61.17-.78.63-.8,1.85l-.24,13.72c0,.48-.09.67-.28.67-.24,0-.5-.24-.74-.48-1.37-1.3-4.15-4.15-6.41-6.39-2.37-2.35-4.78-5.07-5.18-5.48h-.06l.24,9.13Z"></path><path class="cls-1" d="M363.42,316.62c.04,1.7.33,2.26.76,2.41.37.13.78.15,1.13.15.24,0,.37.04.37.17,0,.17-.2.22-.5.22-1.41,0-2.28-.07-2.7-.07-.2,0-1.22.07-2.35.07-.28,0-.48-.02-.48-.22,0-.13.13-.17.35-.17.28,0,.67-.02.98-.11.57-.17.65-.8.67-2.7l.2-12.87c0-.44.07-.74.28-.74.24,0,.43.28.8.67.26.28,3.57,3.83,6.74,6.98,1.48,1.48,4.41,4.61,4.78,4.96h.11l-.22-9.76c-.02-1.33-.22-1.74-.74-1.96-.33-.13-.85-.13-1.15-.13-.26,0-.35-.07-.35-.2,0-.17.24-.2.57-.2,1.13,0,2.17.07,2.63.07.24,0,1.07-.07,2.13-.07.28,0,.5.02.5.2,0,.13-.13.2-.39.2-.22,0-.39,0-.65.07-.61.17-.78.63-.8,1.85l-.24,13.72c0,.48-.09.67-.28.67-.24,0-.5-.24-.74-.48-1.37-1.3-4.15-4.15-6.41-6.39-2.37-2.35-4.78-5.07-5.18-5.48h-.06l.24,9.13Z"></path><path class="cls-1" d="M382.79,309.44c0-3.3,0-3.91-.04-4.61-.04-.74-.22-1.09-.93-1.24-.17-.04-.54-.07-.85-.07-.24,0-.37-.04-.37-.2s.15-.2.48-.2c.59,0,1.22.02,1.76.02.57.02,1.07.04,1.37.04.7,0,5.02,0,5.44-.02.41-.04.76-.09.94-.13.11-.02.24-.09.35-.09s.13.09.13.2c0,.15-.11.41-.17,1.41-.02.22-.06,1.17-.11,1.43-.02.11-.07.24-.22.24s-.2-.11-.2-.3c0-.15-.02-.52-.13-.78-.15-.39-.37-.65-1.46-.78-.37-.04-2.65-.09-3.09-.09-.11,0-.15.07-.15.22v5.5c0,.15.02.24.15.24.48,0,2.98,0,3.48-.04.52-.04.85-.11,1.04-.33.15-.17.24-.28.35-.28.09,0,.15.04.15.17s-.09.48-.17,1.59c-.02.44-.09,1.3-.09,1.46,0,.17,0,.41-.2.41-.15,0-.2-.09-.2-.2-.02-.22-.02-.5-.09-.78-.11-.43-.41-.76-1.22-.85-.41-.04-2.57-.07-3.09-.07-.11,0-.13.09-.13.22v1.72c0,.74-.02,2.74,0,3.37.04,1.5.39,1.83,2.61,1.83.57,0,1.48,0,2.04-.26s.83-.72.98-1.61c.04-.24.09-.33.24-.33.17,0,.17.17.17.39,0,.5-.17,1.98-.28,2.41-.15.57-.35.57-1.17.57-1.63,0-2.83-.04-3.76-.07-.93-.04-1.61-.07-2.26-.07-.24,0-.72,0-1.24.02-.5,0-1.07.04-1.5.04-.28,0-.43-.07-.43-.22,0-.11.09-.17.35-.17.33,0,.59-.04.78-.09.43-.09.54-.57.63-1.2.11-.91.11-2.63.11-4.63v-3.83Z"></path><path class="cls-1" d="M403.05,309.44c0-3.3,0-3.91-.04-4.61-.04-.74-.22-1.09-.93-1.24-.17-.04-.54-.07-.85-.07-.24,0-.37-.04-.37-.2s.15-.2.48-.2c1.15,0,2.52.07,3.13.07.67,0,2.04-.07,3.35-.07,2.72,0,6.35,0,8.72,2.48,1.09,1.13,2.11,2.94,2.11,5.52,0,2.74-1.15,4.83-2.37,6.07-1,1.02-3.26,2.57-7.28,2.57-.78,0-1.67-.07-2.5-.13-.83-.07-1.59-.13-2.13-.13-.24,0-.72,0-1.24.02-.5,0-1.07.04-1.5.04-.28,0-.43-.07-.43-.22,0-.11.09-.17.35-.17.33,0,.59-.04.78-.09.43-.09.54-.57.63-1.2.11-.91.11-2.63.11-4.63v-3.83ZM405.77,311.84c0,2.3.02,3.98.04,4.39.02.54.07,1.41.24,1.65.28.41,1.13.87,2.85.87,2.22,0,3.7-.44,5-1.57,1.39-1.2,1.83-3.17,1.83-5.42,0-2.76-1.15-4.54-2.09-5.44-2-1.91-4.48-2.17-6.18-2.17-.43,0-1.24.07-1.41.15-.2.09-.26.2-.26.44-.02.74-.02,2.63-.02,4.35v2.74Z"></path><path class="cls-1" d="M421.21,302.25c-.22-.22-.24-.28-.24-.39,0-.06.13-.17.24-.17.43,0,1.39.28,1.8.41.54.15.63.3.63.63,0,1.33-1.41,3.65-2.39,4.65-.13.13-.22.17-.35.17-.07,0-.13-.04-.13-.13,0-.04.02-.11.11-.28.39-.76.85-2.04.85-3.39,0-.72-.33-1.3-.52-1.5Z"></path><path class="cls-1" d="M428.14,309.44c0-3.3,0-3.91-.04-4.61-.04-.74-.26-1.11-.74-1.22-.24-.07-.52-.09-.78-.09-.22,0-.35-.04-.35-.22,0-.13.17-.17.52-.17.83,0,2.2.07,2.83.07.54,0,1.83-.07,2.65-.07.28,0,.46.04.46.17,0,.17-.13.22-.35.22s-.39.02-.65.07c-.59.11-.76.48-.8,1.24-.04.7-.04,1.3-.04,4.61v3.83c0,2.11,0,3.83.09,4.76.06.59.22.98.87,1.07.3.04.78.09,1.11.09.24,0,.35.07.35.17,0,.15-.17.22-.41.22-1.44,0-2.8-.07-3.39-.07-.5,0-1.87.07-2.74.07-.28,0-.43-.07-.43-.22,0-.11.09-.17.35-.17.33,0,.59-.04.78-.09.43-.09.56-.46.63-1.09.11-.91.11-2.63.11-4.74v-3.83Z"></path><path class="cls-1" d="M439.18,316.62c.04,1.7.33,2.26.76,2.41.37.13.78.15,1.13.15.24,0,.37.04.37.17,0,.17-.2.22-.5.22-1.41,0-2.28-.07-2.7-.07-.2,0-1.22.07-2.35.07-.28,0-.48-.02-.48-.22,0-.13.13-.17.35-.17.28,0,.67-.02.98-.11.57-.17.65-.8.67-2.7l.2-12.87c0-.44.07-.74.28-.74.24,0,.43.28.8.67.26.28,3.57,3.83,6.74,6.98,1.48,1.48,4.41,4.61,4.78,4.96h.11l-.22-9.76c-.02-1.33-.22-1.74-.74-1.96-.33-.13-.85-.13-1.15-.13-.26,0-.35-.07-.35-.2,0-.17.24-.2.57-.2,1.13,0,2.17.07,2.63.07.24,0,1.07-.07,2.13-.07.28,0,.5.02.5.2,0,.13-.13.2-.39.2-.22,0-.39,0-.65.07-.61.17-.78.63-.8,1.85l-.24,13.72c0,.48-.09.67-.28.67-.24,0-.5-.24-.74-.48-1.37-1.3-4.15-4.15-6.41-6.39-2.37-2.35-4.78-5.07-5.18-5.48h-.06l.24,9.13Z"></path><path class="cls-1" d="M456.55,305.27c-.5-1.2-.87-1.44-1.65-1.65-.33-.09-.67-.09-.85-.09-.2,0-.26-.07-.26-.2,0-.17.24-.2.57-.2,1.15,0,2.39.07,3.15.07.54,0,1.59-.07,2.67-.07.26,0,.5.04.5.2s-.13.2-.33.2c-.35,0-.67.02-.85.15-.15.11-.22.26-.22.46,0,.28.2.89.5,1.67l3.74,9.87h.09c.94-2.39,3.76-9.39,4.28-10.83.11-.28.2-.61.2-.8,0-.17-.09-.35-.28-.41-.26-.09-.59-.11-.87-.11-.2,0-.37-.02-.37-.17,0-.17.2-.22.61-.22,1.09,0,2,.07,2.28.07.37,0,1.39-.07,2.04-.07.28,0,.46.04.46.2s-.13.2-.35.2-.67,0-1.07.26c-.28.2-.61.57-1.2,1.96-.85,2.04-1.44,3.22-2.61,5.89-1.39,3.17-2.41,5.54-2.89,6.63-.57,1.26-.7,1.61-1,1.61-.28,0-.41-.3-.83-1.33l-5.48-13.29Z"></path><path class="cls-1" d="M474.29,309.44c0-3.3,0-3.91-.04-4.61-.04-.74-.22-1.09-.93-1.24-.17-.04-.54-.07-.85-.07-.24,0-.37-.04-.37-.2s.15-.2.48-.2c.59,0,1.22.02,1.76.02.57.02,1.07.04,1.37.04.7,0,5.02,0,5.44-.02.41-.04.76-.09.94-.13.11-.02.24-.09.35-.09s.13.09.13.2c0,.15-.11.41-.17,1.41-.02.22-.06,1.17-.11,1.43-.02.11-.07.24-.22.24s-.2-.11-.2-.3c0-.15-.02-.52-.13-.78-.15-.39-.37-.65-1.46-.78-.37-.04-2.65-.09-3.09-.09-.11,0-.15.07-.15.22v5.5c0,.15.02.24.15.24.48,0,2.98,0,3.48-.04.52-.04.85-.11,1.04-.33.15-.17.24-.28.35-.28.09,0,.15.04.15.17s-.09.48-.17,1.59c-.02.44-.09,1.3-.09,1.46,0,.17,0,.41-.2.41-.15,0-.2-.09-.2-.2-.02-.22-.02-.5-.09-.78-.11-.43-.41-.76-1.22-.85-.41-.04-2.57-.07-3.09-.07-.11,0-.13.09-.13.22v1.72c0,.74-.02,2.74,0,3.37.04,1.5.39,1.83,2.61,1.83.57,0,1.48,0,2.04-.26s.83-.72.98-1.61c.04-.24.09-.33.24-.33.17,0,.17.17.17.39,0,.5-.17,1.98-.28,2.41-.15.57-.35.57-1.17.57-1.63,0-2.83-.04-3.76-.07-.93-.04-1.61-.07-2.26-.07-.24,0-.72,0-1.24.02-.5,0-1.07.04-1.5.04-.28,0-.43-.07-.43-.22,0-.11.09-.17.35-.17.33,0,.59-.04.78-.09.43-.09.54-.57.63-1.2.11-.91.11-2.63.11-4.63v-3.83Z"></path><path class="cls-1" d="M486.84,319.32c-.35-.15-.41-.26-.41-.74,0-1.2.09-2.5.11-2.85.02-.33.09-.57.26-.57.2,0,.22.2.22.37,0,.28.09.74.2,1.11.48,1.61,1.76,2.2,3.11,2.2,1.96,0,2.91-1.33,2.91-2.48,0-1.07-.33-2.07-2.13-3.48l-1-.78c-2.39-1.87-3.22-3.39-3.22-5.15,0-2.39,2-4.11,5.02-4.11,1.41,0,2.33.22,2.89.37.2.04.3.11.3.26,0,.28-.09.91-.09,2.61,0,.48-.07.65-.24.65-.15,0-.22-.13-.22-.39,0-.2-.11-.87-.57-1.44-.33-.41-.96-1.07-2.37-1.07-1.61,0-2.59.94-2.59,2.24,0,1,.5,1.76,2.3,3.13l.61.46c2.63,1.98,3.57,3.48,3.57,5.54,0,1.26-.48,2.76-2.04,3.78-1.09.7-2.3.89-3.46.89-1.26,0-2.24-.15-3.17-.57Z"></path><path class="cls-1" d="M503.57,304.36l-3.24.09c-1.26.04-1.78.15-2.11.63-.22.33-.33.59-.37.76s-.11.26-.24.26c-.15,0-.2-.11-.2-.35,0-.35.41-2.33.46-2.5.07-.28.13-.41.26-.41.17,0,.39.22.94.26.63.07,1.46.11,2.17.11h8.61c.7,0,1.17-.07,1.5-.11.33-.06.5-.11.59-.11.15,0,.17.13.17.46,0,.46-.07,1.96-.07,2.52-.02.22-.06.35-.2.35-.17,0-.22-.11-.24-.44l-.02-.24c-.04-.57-.63-1.17-2.57-1.22l-2.74-.07v8.92c0,2,0,3.72.11,4.65.07.61.2,1.09.85,1.17.3.04.78.09,1.11.09.24,0,.35.07.35.17,0,.15-.17.22-.41.22-1.44,0-2.81-.07-3.41-.07-.5,0-1.87.07-2.74.07-.28,0-.43-.07-.43-.22,0-.11.09-.17.35-.17.33,0,.59-.04.78-.09.43-.09.57-.57.63-1.2.11-.91.11-2.63.11-4.63v-8.92Z"></path><path class="cls-1" d="M516.12,309.44c0-3.3,0-3.91-.04-4.61-.04-.74-.26-1.11-.74-1.22-.24-.07-.52-.09-.78-.09-.22,0-.35-.04-.35-.22,0-.13.17-.17.52-.17.83,0,2.2.07,2.83.07.54,0,1.83-.07,2.65-.07.28,0,.46.04.46.17,0,.17-.13.22-.35.22s-.39.02-.65.07c-.59.11-.76.48-.8,1.24-.04.7-.04,1.3-.04,4.61v3.83c0,2.11,0,3.83.09,4.76.06.59.22.98.87,1.07.3.04.78.09,1.11.09.24,0,.35.07.35.17,0,.15-.17.22-.41.22-1.44,0-2.8-.07-3.39-.07-.5,0-1.87.07-2.74.07-.28,0-.43-.07-.43-.22,0-.11.09-.17.35-.17.33,0,.59-.04.78-.09.43-.09.56-.46.63-1.09.11-.91.11-2.63.11-4.74v-3.83Z"></path><path class="cls-1" d="M524.75,319.32c-.35-.15-.41-.26-.41-.74,0-1.2.09-2.5.11-2.85.02-.33.09-.57.26-.57.2,0,.22.2.22.37,0,.28.09.74.2,1.11.48,1.61,1.76,2.2,3.11,2.2,1.96,0,2.91-1.33,2.91-2.48,0-1.07-.33-2.07-2.13-3.48l-1-.78c-2.39-1.87-3.22-3.39-3.22-5.15,0-2.39,2-4.11,5.02-4.11,1.41,0,2.33.22,2.89.37.2.04.3.11.3.26,0,.28-.09.91-.09,2.61,0,.48-.07.65-.24.65-.15,0-.22-.13-.22-.39,0-.2-.11-.87-.57-1.44-.33-.41-.96-1.07-2.37-1.07-1.61,0-2.59.94-2.59,2.24,0,1,.5,1.76,2.3,3.13l.61.46c2.63,1.98,3.57,3.48,3.57,5.54,0,1.26-.48,2.76-2.04,3.78-1.09.7-2.3.89-3.46.89-1.26,0-2.24-.15-3.17-.57Z"></path><path class="cls-1" d="M537.4,319.32c-.35-.15-.41-.26-.41-.74,0-1.2.09-2.5.11-2.85.02-.33.09-.57.26-.57.2,0,.22.2.22.37,0,.28.09.74.2,1.11.48,1.61,1.76,2.2,3.11,2.2,1.96,0,2.91-1.33,2.91-2.48,0-1.07-.33-2.07-2.13-3.48l-1-.78c-2.39-1.87-3.22-3.39-3.22-5.15,0-2.39,2-4.11,5.02-4.11,1.41,0,2.33.22,2.89.37.2.04.3.11.3.26,0,.28-.09.91-.09,2.61,0,.48-.07.65-.24.65-.15,0-.22-.13-.22-.39,0-.2-.11-.87-.57-1.44-.33-.41-.96-1.07-2.37-1.07-1.61,0-2.59.94-2.59,2.24,0,1,.5,1.76,2.3,3.13l.61.46c2.63,1.98,3.57,3.48,3.57,5.54,0,1.26-.48,2.76-2.04,3.78-1.09.7-2.3.89-3.46.89-1.26,0-2.24-.15-3.17-.57Z"></path><path class="cls-1" d="M551.25,309.44c0-3.3,0-3.91-.04-4.61-.04-.74-.22-1.09-.93-1.24-.17-.04-.54-.07-.85-.07-.24,0-.37-.04-.37-.2s.15-.2.48-.2c.59,0,1.22.02,1.76.02.57.02,1.07.04,1.37.04.7,0,5.02,0,5.44-.02.41-.04.76-.09.94-.13.11-.02.24-.09.35-.09s.13.09.13.2c0,.15-.11.41-.17,1.41-.02.22-.06,1.17-.11,1.43-.02.11-.07.24-.22.24s-.2-.11-.2-.3c0-.15-.02-.52-.13-.78-.15-.39-.37-.65-1.46-.78-.37-.04-2.65-.09-3.09-.09-.11,0-.15.07-.15.22v5.5c0,.15.02.24.15.24.48,0,2.98,0,3.48-.04.52-.04.85-.11,1.04-.33.15-.17.24-.28.35-.28.09,0,.15.04.15.17s-.09.48-.17,1.59c-.02.44-.09,1.3-.09,1.46,0,.17,0,.41-.2.41-.15,0-.2-.09-.2-.2-.02-.22-.02-.5-.09-.78-.11-.43-.41-.76-1.22-.85-.41-.04-2.57-.07-3.09-.07-.11,0-.13.09-.13.22v1.72c0,.74-.02,2.74,0,3.37.04,1.5.39,1.83,2.61,1.83.57,0,1.48,0,2.04-.26s.83-.72.98-1.61c.04-.24.09-.33.24-.33.17,0,.17.17.17.39,0,.5-.17,1.98-.28,2.41-.15.57-.35.57-1.17.57-1.63,0-2.83-.04-3.76-.07-.93-.04-1.61-.07-2.26-.07-.24,0-.72,0-1.24.02-.5,0-1.07.04-1.5.04-.28,0-.43-.07-.43-.22,0-.11.09-.17.35-.17.33,0,.59-.04.78-.09.43-.09.54-.57.63-1.2.11-.91.11-2.63.11-4.63v-3.83Z"></path><path class="cls-1" d="M565.79,303.23c.07-.37.2-.57.37-.57s.3.11.59.67l5.94,12.26,5.91-12.42c.17-.35.28-.52.48-.52s.33.22.39.67l1.98,13.44c.2,1.37.41,2,1.07,2.2.63.2,1.07.22,1.35.22.2,0,.35.02.35.15,0,.17-.26.24-.57.24-.54,0-3.54-.07-4.41-.13-.5-.04-.63-.11-.63-.24,0-.11.09-.17.24-.24.13-.04.2-.33.11-.93l-1.3-9.57h-.09l-4.74,9.87c-.5,1.02-.61,1.22-.8,1.22s-.41-.44-.76-1.09c-.52-1-2.24-4.33-2.5-4.94-.2-.46-1.5-3.2-2.26-4.83h-.09l-1.13,8.65c-.04.39-.07.67-.07,1.02,0,.41.28.61.65.7.39.09.7.11.91.11.17,0,.33.04.33.15,0,.2-.2.24-.52.24-.91,0-1.89-.07-2.28-.07-.41,0-1.46.07-2.15.07-.22,0-.39-.04-.39-.24,0-.11.13-.15.35-.15.17,0,.33,0,.65-.07.61-.13.78-.98.89-1.72l2.15-14.18Z"></path><path class="cls-1" d="M587.66,309.44c0-3.3,0-3.91-.04-4.61-.04-.74-.22-1.09-.93-1.24-.17-.04-.54-.07-.85-.07-.24,0-.37-.04-.37-.2s.15-.2.48-.2c.59,0,1.22.02,1.76.02.57.02,1.07.04,1.37.04.7,0,5.02,0,5.44-.02.41-.04.76-.09.94-.13.11-.02.24-.09.35-.09s.13.09.13.2c0,.15-.11.41-.17,1.41-.02.22-.06,1.17-.11,1.43-.02.11-.07.24-.22.24s-.2-.11-.2-.3c0-.15-.02-.52-.13-.78-.15-.39-.37-.65-1.46-.78-.37-.04-2.65-.09-3.09-.09-.11,0-.15.07-.15.22v5.5c0,.15.02.24.15.24.48,0,2.98,0,3.48-.04.52-.04.85-.11,1.04-.33.15-.17.24-.28.35-.28.09,0,.15.04.15.17s-.09.48-.17,1.59c-.02.44-.09,1.3-.09,1.46,0,.17,0,.41-.2.41-.15,0-.2-.09-.2-.2-.02-.22-.02-.5-.09-.78-.11-.43-.41-.76-1.22-.85-.41-.04-2.57-.07-3.09-.07-.11,0-.13.09-.13.22v1.72c0,.74-.02,2.74,0,3.37.04,1.5.39,1.83,2.61,1.83.57,0,1.48,0,2.04-.26s.83-.72.98-1.61c.04-.24.09-.33.24-.33.17,0,.17.17.17.39,0,.5-.17,1.98-.28,2.41-.15.57-.35.57-1.17.57-1.63,0-2.83-.04-3.76-.07-.93-.04-1.61-.07-2.26-.07-.24,0-.72,0-1.24.02-.5,0-1.07.04-1.5.04-.28,0-.43-.07-.43-.22,0-.11.09-.17.35-.17.33,0,.59-.04.78-.09.43-.09.54-.57.63-1.2.11-.91.11-2.63.11-4.63v-3.83Z"></path><path class="cls-1" d="M602.61,316.62c.04,1.7.33,2.26.76,2.41.37.13.78.15,1.13.15.24,0,.37.04.37.17,0,.17-.2.22-.5.22-1.41,0-2.28-.07-2.7-.07-.2,0-1.22.07-2.35.07-.28,0-.48-.02-.48-.22,0-.13.13-.17.35-.17.28,0,.67-.02.98-.11.57-.17.65-.8.67-2.7l.2-12.87c0-.44.07-.74.28-.74.24,0,.43.28.8.67.26.28,3.57,3.83,6.74,6.98,1.48,1.48,4.41,4.61,4.78,4.96h.11l-.22-9.76c-.02-1.33-.22-1.74-.74-1.96-.33-.13-.85-.13-1.15-.13-.26,0-.35-.07-.35-.2,0-.17.24-.2.57-.2,1.13,0,2.17.07,2.63.07.24,0,1.07-.07,2.13-.07.28,0,.5.02.5.2,0,.13-.13.2-.39.2-.22,0-.39,0-.65.07-.61.17-.78.63-.8,1.85l-.24,13.72c0,.48-.09.67-.28.67-.24,0-.5-.24-.74-.48-1.37-1.3-4.15-4.15-6.41-6.39-2.37-2.35-4.78-5.07-5.18-5.48h-.06l.24,9.13Z"></path><path class="cls-1" d="M624.88,304.36l-3.24.09c-1.26.04-1.78.15-2.11.63-.22.33-.33.59-.37.76-.04.17-.11.26-.24.26-.15,0-.2-.11-.2-.35,0-.35.41-2.33.46-2.5.07-.28.13-.41.26-.41.17,0,.39.22.94.26.63.07,1.46.11,2.17.11h8.61c.7,0,1.17-.07,1.5-.11.33-.06.5-.11.59-.11.15,0,.17.13.17.46,0,.46-.07,1.96-.07,2.52-.02.22-.06.35-.2.35-.17,0-.22-.11-.24-.44l-.02-.24c-.04-.57-.63-1.17-2.57-1.22l-2.74-.07v8.92c0,2,0,3.72.11,4.65.07.61.2,1.09.85,1.17.3.04.78.09,1.11.09.24,0,.35.07.35.17,0,.15-.17.22-.41.22-1.44,0-2.81-.07-3.41-.07-.5,0-1.87.07-2.74.07-.28,0-.43-.07-.43-.22,0-.11.09-.17.35-.17.33,0,.59-.04.78-.09.43-.09.57-.57.63-1.2.11-.91.11-2.63.11-4.63v-8.92Z"></path></g><g><path class="cls-1" d="M17.1,260.68c-.16,0-.32.11-.49.3-.45.55-1.43,2.19-1.43,2.64,0,.15.03.23.16.36.65.7,1.1,1.15,1.88,1.89,2.2,2.1,2.33,3.46,2.33,3.68,0,.23-.13.79-.32,1.11-1.3,2.32-6.45,5.08-9.04,5.84-2.23.68-3.56.91-5.12.91-1.88,0-3.69-.25-4.37-.25-.36,0-.71.08-.71.25,0,.15.07.32.84.57,2.88.96,7.51,1.72,9.62,1.72.62,0,1.13-.06,1.52-.17,6.19-1.66,9.85-5.7,9.85-10.99,0-1.08-.1-2.06-.52-2.98-.94-2.21-3.14-4.89-4.21-4.89Z"></path><path class="cls-1" d="M67.75,251.79c.26.11.36.11.55-.04.87-.66,2.79-2.1,3.37-2.59.19-.13.26-.21.03-.3-1.65-.7-3.37-1.7-4.28-2.34-.16-.11-.26-.08-.71.21-.94.62-2.3,1.64-3.08,2.42-.16.19-.16.21,0,.38.62.64,3.01,1.83,4.11,2.25Z"></path><path class="cls-1" d="M64.45,258.91c.45.19.62.06.91-.06.58-.28,1.98-1.3,2.69-1.83,1.17.74,2.49,1.45,3.4,1.89.36.17.45.17.71-.04,1.04-.83,2.07-1.59,3.17-2.36.39-.25.39-.32,0-.49-1.23-.55-2.53-1.42-3.66-2.21-.23-.17-.39-.11-.81.17-.58.36-1.88,1.34-2.59,1.89-.94-.34-2.53-1.27-3.4-1.91-.32-.23-.49-.26-.74-.09-1.17.76-2.4,1.68-3.27,2.38-.29.23-.29.32-.07.51.94.81,2.46,1.66,3.66,2.15Z"></path><path class="cls-1" d="M79.15,252.77c.45.19.62.06.91-.06.58-.28,1.98-1.3,2.69-1.83,1.17.74,2.49,1.44,3.4,1.89.36.17.45.17.71-.04,1.04-.83,2.07-1.59,3.17-2.36.39-.26.39-.32,0-.49-1.23-.55-2.53-1.42-3.66-2.21-.23-.17-.39-.11-.81.17-.58.36-1.88,1.34-2.59,1.89-.94-.34-2.53-1.28-3.4-1.91-.32-.23-.49-.25-.74-.08-1.17.76-2.4,1.68-3.27,2.38-.29.23-.29.32-.07.51.94.81,2.46,1.66,3.66,2.15Z"></path><path class="cls-1" d="M119.47,260.04c-.19,0-.42.15-.52.23-.68.62-2.36,2.36-2.36,2.81,0,.09.03.15.1.21.62.66,1,1.13,1,1.55,0,.57-1.04.68-1.59.68-1.75,0-4.34-.81-4.34-2.76,0-.49.16-.81.16-1.15,0-.3-.13-.42-.39-.42-.42,0-.94.42-1.49,1.38-.97,1.66-3.6,3.15-6.19,3.15s-3.34-1.04-3.56-2.34c-.13-.79-.23-1.1-.65-1.1-.23,0-.55.13-.74.34-1.26,1.34-2.33,2.3-4.08,2.89-1.36.47-3.01.7-5.08.7h-.48c-1.07,0-3.43-.91-4.37-2.38-.65-1.04-1.23-4.29-1.91-5.91-.16-.4-.39-.64-.58-.64s-.32.15-.58.51c-.42.6-1,1.49-1.26,2.1-.06.15-.1.34-.1.51,0,.34.94,4.04.94,4.33,0,.06-.03.17-.1.21-.39.47-2.14,1.25-5.05,1.25h-.19s0,0-.01,0c0,0,0,0-.02,0h-.32c-.32,0-.68,0-1.13-.04-1.75-.21-3.21-1.21-3.21-2.1,0-.81-.23-1.13-.58-1.13-.26,0-.55.09-1.17.79-2.01,2.25-5.38,2.49-7.74,2.49h-1.62s0,0-.01,0c0,0-.01,0-.02,0h-.23c-2.3,0-6.87-3.02-9.07-4.53-.49-.3-.94-.42-1.36-.42-1.36,0-2.66,1.27-4.57,2.53-1.88,1.23-4.37,2.42-8.23,2.42h-.42s-.08,0-.12,0c-.06,0-.11,0-.17,0-1.65-.06-2.79-.53-3.4-1.49-.42-.66-.58-1.02-.91-2.08-1.3-4.19-.42-11.79-1.46-17.26-.19-.74-.42-1.02-.65-1.02-.19,0-.32.06-.68.51-.49.62-.94,1.13-1.68,1.85-.32.32-.36.47-.36.62,0,.09.03.28.07.38.71,2.78,1,7.54,1.2,10.71.13,2.17.36,4.1.71,5.78.45,2.19,1.36,3.89,3.04,4.8,1.07.57,2.43.74,3.98.74h.74c2.2,0,4.83-.87,5.57-2.23,2.04,2,9.07,3.38,9.91,3.38.94,0,2.82-1.34,3.24-2.38.39.28,2.53,1.23,4.6,1.23h.45c5.21,0,8.13-1.66,8.71-2.61.19.23,1.52,2.34,5.15,2.57.65.04.97.04,1.36.04h.61c3.56,0,5.89-2.66,6.09-3.72.13.28.81,1.96,2.69,2.95,1.19.64,2.62.75,3.98.76.04,0,.07,0,.1,0h.62c2.56,0,4.02-.64,5.54-1.55,1.17-.7,1.98-1.38,3.01-2.27.58,2.49,2.33,3.42,4.83,3.42,1.91,0,4.37-.74,6.25-2.93.68,1.61,2.53,2.51,5.02,2.51,4.24,0,6.22-4.08,6.22-6.04,0-1.06-.13-1.83-.62-2.47-.23-.28-.36-.38-.52-.38ZM52.34,267.28c-.62,0-2.75-.64-3.63-.91-2.14-.66-2.82-.91-2.82-1.17,0-.15.23-.32.68-.57.55-.3.75-.43,1.26-.43.81,0,1.75.47,2.56,1,.75.49,2.27,1.68,2.27,1.87,0,.13-.1.21-.32.21Z"></path><path class="cls-1" d="M137.08,277.36c-.16,0-.36.11-.78.28-.87.38-2.91.89-3.5,1-.1.02-.19.02-.32.02-1.26,0-4.31-.81-4.31-1.32,0-.38,1.23-1.08,3.04-1.08.71,0,1.04.19,1.36.4.29.17.49.25.68.25s.39-.21.62-.6c.36-.59.55-1.08.55-1.49,0-.72-.58-1.13-1.88-1.13-.87,0-1.65.21-2.43.62-2.11,1.08-4.37,3.12-4.37,4.57,0,.09,0,.17.03.26.16.87.81,1.06,2.2,1.45.23.06.32.13.32.17s-.13.09-.23.15c-.81.42-1.81,1.11-1.98,1.38-.32.53-.49.89-.49,1.06,0,.09.06.13.13.13s.13-.02.26-.06c3.34-1.61,7.51-3.27,9.52-3.95.42-.17.81-.34,1.43-1.3.16-.28.29-.53.29-.66,0-.11-.07-.15-.16-.15Z"></path><path class="cls-1" d="M158.13,248.1c.03-.09.07-.15.07-.21,0-.17-.13-.32-.26-.47-.55-.55-1.3-1.32-1.94-2.85-.13-.21-.23-.32-.42-.32-.45,0-1.04.62-1.68,1.42-.49.6-1.26,1.66-1.26,2.06,0,.11.03.23.07.36.19.74.84,2.68.91,3.29.68,5.48,2.14,11.11,2.2,13.81-.19.23-.75.47-1.65.66-1.04.23-2.2.34-3.47.34h-.26c-.94,0-1.72-.23-2.3-.53-1.75-.89-2.2-1.98-2.79-5.21-.71-3.89-.97-9.2-1.2-11.05-.19-1.76-.32-3.38-.49-4.38-.03-.15-.13-1.08-.49-1.08-.71,0-2.2,2.3-2.59,3.29,0,1.89.52,4.59.52,7.42,0,2.38-.36,4.82-1.68,6.99,0-1.4-.55-2.97-1.2-4.36-2.33-4.85-10.27-9.07-15.9-10.6-1.04-.28-2.46-.57-3.11-.57-.78,0-1.13,1.06-1.13,2.19,0,.96.26,1.95.78,2.36,2.14,1.7,4.44,2.42,5.73,2.42.81,0,1.43-.4,1.81-.77,3.01.87,7.03,3.23,9.49,6.16.71.87,2.43,2.78,2.49,4.55-2.14,2.57-8.87,5.89-12.7,7.18-1.68.57-2.46.91-2.46,1.08,0,.13.39.15,1.17.15,2.24,0,5.86-.34,7.87-.62,2.2-.32,4.18-.81,5.18-1.72,3.4-3.08,4.34-5.42,4.83-9.39.03-.36.13-.51.19-.51.1,0,.19.23.26.62.19.94.39,2.76.81,4.57.58,2.72,1.49,4.04,3.3,4.74.89.34,1.83.53,2.85.59.15.02.31.03.48.03h.78c.1,0,.18,0,.27-.01,2.28-.07,3.7-.61,4.88-1.6,1.59-1.57,2.4-3.63,2.4-6.21s-1.3-6.86-1.68-12.16c.45-.4,1.13-1.3,1.33-1.68Z"></path><path class="cls-1" d="M197.03,269.75s.08,0,.13,0c.87-.01,1.74-.04,2.4-.1,3.27-.32,5.08-1.15,6.12-2.08,1.3-1.15,1.49-2.59,1.49-3.89,0-2.95-1.91-5.44-2.72-5.44-.13,0-.23.06-.29.19-.07.11-1.65,2.34-1.65,2.93,0,.04,0,.09.03.11.75.7,2.33,2.4,2.53,3.8-1.43.87-5.21.94-7.61.94h-1.13c-.74,0-1.68-.23-2.82-.72-1.81-.81-3.04-2-3.53-3.34-.62-1.59-1.04-4.25-1.85-7.44-.16-.62-.36-.85-.58-.85-.29,0-.62.34-.97.76-.55.64-.87,1.08-.87,1.89,0,.23.03.51.1.83-1.26.62-4.44,1.87-5.54,2.44-2.56,1.36-3.24,1.87-3.98,5.36,0,.83,1.52,1.02,3.27,1.02,2.36,0,4.7-.28,6.19-.96,1.04-.47,1.46-1.02,1.98-1.57.45,2.19,1.52,3.74,3.24,4.7,1.52.84,3.08,1.29,4.7,1.38.17.03.35.04.54.04.03,0,.06,0,.09,0,0,0,0,0,0,0h.75ZM181.97,262.42c-1.04,0-1.75-.13-1.75-.36.19-.47,3.92-1.98,6.15-2.91.36,1.19.49,1.57.71,2.51-1.52.51-3.63.76-5.12.76Z"></path><path class="cls-1" d="M180.06,251.13c.45.19.62.06.91-.06.58-.28,1.98-1.3,2.69-1.83,1.17.74,2.49,1.45,3.4,1.89.36.17.45.17.71-.04,1.04-.83,2.07-1.59,3.17-2.36.39-.26.39-.32,0-.49-1.23-.55-2.53-1.42-3.66-2.21-.23-.17-.39-.11-.81.17-.58.36-1.88,1.34-2.59,1.89-.94-.34-2.53-1.28-3.4-1.91-.32-.23-.49-.25-.75-.09-1.17.77-2.4,1.68-3.27,2.38-.29.23-.29.32-.06.51.94.81,2.46,1.66,3.66,2.15Z"></path><path class="cls-1" d="M211.4,273.6c-1.23-.55-2.53-1.42-3.66-2.21-.23-.17-.39-.11-.81.17-.58.36-1.88,1.34-2.59,1.89-.94-.34-2.53-1.27-3.4-1.91-.32-.23-.49-.25-.75-.09-1.17.77-2.4,1.68-3.27,2.38-.29.23-.29.32-.07.51.94.81,2.46,1.66,3.66,2.15.45.19.62.06.91-.06.58-.28,1.98-1.3,2.69-1.83,1.17.74,2.49,1.45,3.4,1.89.36.17.45.17.71-.04,1.04-.83,2.07-1.59,3.17-2.36.39-.25.39-.32,0-.49Z"></path><path class="cls-1" d="M227.14,266.56c.19-.43.62-1.76.62-3.1,0-1.49-.74-2.83-1.75-4.04-1.55-1.83-3.76-3.31-5.15-3.7-.71-.26-1.75-.42-2.56-.42-.49,0-.81.02-1.13.19-1,.51-1.88,2.55-1.88,3.36,0,.19.1.26.23.26.32,0,.87-.32,1.33-.32,3.3,0,7.55,3.95,8.55,6.12.03.06.07.17.07.21,0,.06-.07.11-.23.17-1.39.53-4.96.91-7.87.91-1.81,0-3.4-.15-4.05-.49-.26-.13-.42-.23-.58-.23-.19,0-.42.19-.58.72-.07.21-.19.72-.19,1.3,0,.81.23,1.55.71,1.87.42.28,1.2.42,2.85.42,6.9,0,10.59-.85,11.63-3.23Z"></path><path class="cls-1" d="M312.44,248.1c.03-.09.07-.15.07-.21,0-.17-.13-.32-.26-.47-.55-.55-1.3-1.32-1.94-2.85-.13-.21-.23-.32-.42-.32-.45,0-1.04.62-1.68,1.42-.49.6-1.26,1.66-1.26,2.06,0,.11.03.23.07.36.19.74.84,2.68.91,3.29.68,5.48,2.14,11.11,2.2,13.81-.19.23-.75.47-1.65.66-1.04.23-2.2.34-3.47.34h-.42c-2.11-.11-3.47-1.04-3.66-2.68-.1-.83-.29-.98-.55-.98-.39,0-.68.4-.78.55-1,1.32-2.2,2.83-4.6,2.83-1.52,0-2.79-.66-2.79-1.76,0-.32.03-.53.03-.72,0-.55-.1-.76-.42-.76s-.65.34-.84.55c-1.55,1.85-3.6,2.7-6.54,2.7-2.33,0-4.11-.7-4.21-2.06-.06-.55-.19-.83-.55-.83-.32,0-.65.32-.75.51-1.26,1.79-3.76,2.66-7.51,2.66h-.35c-2.2,0-4.27-.64-6.22-1.91,2.07-1,3.01-2.53,3.01-3.63,0-.49-.19-.91-.55-1.15-1.62-1.1-3.82-1.66-6.19-1.66s-4.99.57-7.29,1.72c-.68.34-1.1,1.68-1.1,2.49,0,.36.07.62.26.64,1.49.17,4.28.59,5.44,1.68-3.56,1.32-6.32,1.83-10.59,1.83h-2.04c-.16-1.55-.62-3.25-1.75-4.4-1-1.02-2.49-1.79-4.18-1.79-1.49,0-3.11,1.47-4.44,3.42-.81,1.17-1.43,2.53-1.43,3.42,0,.96.68,1.79,2.3,2.38,1.55.55,3.82.7,5.12.7h1.75c.16.49.23.74.23,1.02,0,1.87-3.6,4.57-9.3,6.5-2.11.72-3.43.96-4.92.96-1.68,0-3.69-.28-4.31-.28-.55,0-.91.09-.91.25,0,.15.19.38.97.62,3.21.93,7.09,1.64,9.46,1.64.62,0,1.1-.06,1.49-.15,6.7-1.7,9.46-5.23,9.81-10.67l2.49-.09c.12,0,.24-.02.35-.03,2-.07,3.8-.3,5.38-.71,1.68-.45,3.95-1.49,6.77-3.12,1.17,1.25,1.98,1.87,3.85,2.61,1.58.62,3.36,1,5.3,1.17.27.05.57.09.92.09h.85s.06,0,.1,0c2.21-.03,3.74-.28,4.59-.74.94-.51,1.59-1.08,1.94-1.74.78,1.76,2.59,2.44,5.47,2.44,2.69,0,5.38-1.21,6.35-2.95.23,1.59,1.55,3.02,4.05,3.02s4.57-1.57,5.34-3.04c.46,1.93,1.9,2.9,4.66,3,.12,0,.23.02.35.02h.78c.1,0,.19,0,.28-.01,2.28-.07,3.69-.61,4.87-1.6,1.59-1.57,2.4-3.63,2.4-6.21s-1.3-6.86-1.68-12.16c.45-.4,1.13-1.3,1.33-1.68ZM241.17,266.27c-.65,0-1.75-.13-2.72-.38-1.26-.32-1.85-.7-1.85-1.06,0-.38.65-1.19,1.78-1.19.65,0,1,.19,1.33.36,1.07.57,2.04,1.74,2.04,2.15,0,.09-.23.13-.58.13Z"></path><path class="cls-1" d="M323.87,244.31c-.32,0-.81.47-1.1.81-.97,1.15-2.04,2.76-2.04,3.83,0,2.15,2.59,15.11,2.59,19.78,0,.81.1,1.04.36,1.04.42,0,.84-.6,1.46-1.76.58-1.13.84-3.08.84-5.38,0-5.74-1.43-13.73-1.68-17.09-.07-.94-.13-1.23-.42-1.23Z"></path><path class="cls-1" d="M348.35,251.13c.45.19.62.06.91-.06.58-.28,1.98-1.3,2.69-1.83,1.17.74,2.49,1.45,3.4,1.89.36.17.45.17.71-.04,1.04-.83,2.07-1.59,3.17-2.36.39-.26.39-.32,0-.49-1.23-.55-2.53-1.42-3.66-2.21-.23-.17-.39-.11-.81.17-.58.36-1.88,1.34-2.59,1.89-.94-.34-2.53-1.28-3.4-1.91-.32-.23-.49-.25-.75-.09-1.17.77-2.4,1.68-3.27,2.38-.29.23-.29.32-.06.51.94.81,2.46,1.66,3.66,2.15Z"></path><path class="cls-1" d="M365.33,269.75s.08,0,.13,0c.87-.01,1.74-.04,2.4-.1,3.27-.32,5.08-1.15,6.12-2.08,1.3-1.15,1.49-2.59,1.49-3.89,0-2.95-1.91-5.44-2.72-5.44-.13,0-.23.06-.29.19-.06.11-1.65,2.34-1.65,2.93,0,.04,0,.09.03.11.75.7,2.33,2.4,2.53,3.8-1.43.87-5.21.94-7.61.94h-1.13c-.74,0-1.68-.23-2.82-.72-1.81-.81-3.04-2-3.53-3.34-.62-1.59-1.04-4.25-1.85-7.44-.16-.62-.36-.85-.58-.85-.29,0-.62.34-.97.76-.55.64-.87,1.08-.87,1.89,0,.23.03.51.1.83-1.26.62-4.44,1.87-5.54,2.44-2.56,1.36-3.24,1.87-3.98,5.36,0,.83,1.52,1.02,3.27,1.02,2.36,0,4.7-.28,6.19-.96,1.04-.47,1.46-1.02,1.98-1.57.45,2.19,1.52,3.74,3.24,4.7,1.52.84,3.08,1.29,4.7,1.38.17.03.35.04.54.04.03,0,.06,0,.09,0,0,0,0,0,0,0h.74ZM350.26,262.42c-1.04,0-1.75-.13-1.75-.36.19-.47,3.92-1.98,6.15-2.91.36,1.19.49,1.57.71,2.51-1.52.51-3.63.76-5.12.76Z"></path><path class="cls-1" d="M379.7,273.6c-1.23-.55-2.53-1.42-3.66-2.21-.23-.17-.39-.11-.81.17-.58.36-1.88,1.34-2.59,1.89-.94-.34-2.53-1.27-3.4-1.91-.32-.23-.49-.25-.74-.09-1.17.77-2.4,1.68-3.27,2.38-.29.23-.29.32-.07.51.94.81,2.46,1.66,3.66,2.15.45.19.62.06.91-.06.58-.28,1.98-1.3,2.69-1.83,1.17.74,2.49,1.45,3.4,1.89.36.17.45.17.71-.04,1.04-.83,2.07-1.59,3.17-2.36.39-.25.39-.32,0-.49Z"></path><path class="cls-1" d="M414.06,258.23c-.13,0-.23.06-.29.19-.06.11-1.65,2.34-1.65,2.93,0,.04,0,.09.03.11.75.7,2.33,2.4,2.53,3.8-1.43.87-5.21.94-7.61.94h-1.42c-2.2,0-3.53-.38-4.37-1.34-.65-.74-1-1.02-1.39-1.02-.16,0-.39.08-.65.34-.49.49-1.36,2.06-1.36,2.87,0,.17.03.32.13.4.52.42,3.04,2.08,3.04,2.93-.91,3.44-8.23,7.71-15.68,7.71-1.1,0-2.33-.11-3.04-.11-.58,0-.91.11-.91.32,0,.17.19.36,1,.62,2.75.83,6.19,1.61,8.32,1.61.97,0,1.91-.13,2.88-.42,5.44-1.66,7.22-4.82,8.49-6.76.58-.94.87-2.08.87-3.23,0-.17-.03-.36-.03-.53.6.1,1.55.14,2.81.15.01,0,.02,0,.03,0,.05,0,.11,0,.16,0,.04,0,.07,0,.1,0h.55s.08,0,.12,0c.88-.01,1.77-.04,2.44-.1,3.27-.32,5.08-1.15,6.12-2.08,1.3-1.15,1.49-2.59,1.49-3.89,0-2.95-1.91-5.44-2.72-5.44Z"></path><path class="cls-1" d="M418.34,250.01c-.16,0-.36.11-.78.28-.87.38-2.91.89-3.5,1-.1.02-.19.02-.32.02-1.26,0-4.31-.81-4.31-1.32,0-.38,1.23-1.08,3.04-1.08.71,0,1.04.19,1.36.4.29.17.49.25.68.25s.39-.21.62-.6c.36-.59.55-1.08.55-1.49,0-.72-.58-1.13-1.88-1.13-.87,0-1.65.21-2.43.62-2.11,1.08-4.37,3.12-4.37,4.57,0,.09,0,.17.03.26.16.87.81,1.06,2.2,1.45.23.06.32.13.32.17s-.13.09-.23.15c-.81.42-1.81,1.11-1.98,1.38-.32.53-.49.89-.49,1.06,0,.09.06.13.13.13s.13-.02.26-.06c3.34-1.61,7.51-3.27,9.52-3.95.42-.17.81-.34,1.43-1.3.16-.28.29-.53.29-.66,0-.11-.07-.15-.16-.15Z"></path><path class="cls-1" d="M425.98,269.77c.42,0,.84-.6,1.46-1.76.58-1.13.84-3.08.84-5.38,0-5.74-1.42-13.73-1.68-17.09-.06-.94-.13-1.23-.42-1.23-.32,0-.81.47-1.1.81-.97,1.15-2.04,2.76-2.04,3.83,0,2.15,2.59,15.11,2.59,19.78,0,.81.1,1.04.36,1.04Z"></path><path class="cls-1" d="M439.35,259.49c.26.11.36.11.55-.04.88-.66,2.79-2.1,3.37-2.59.19-.13.26-.21.03-.3-1.65-.7-3.37-1.7-4.28-2.34-.16-.11-.26-.09-.71.21-.94.62-2.3,1.64-3.08,2.42-.16.19-.16.21,0,.38.62.64,3.01,1.83,4.11,2.25Z"></path><path class="cls-1" d="M461.57,275.4c-1.65-.7-3.37-1.7-4.28-2.34-.16-.11-.26-.09-.71.21-.94.62-2.3,1.64-3.08,2.42-.16.19-.16.21,0,.38.62.64,3.01,1.83,4.11,2.25.26.11.36.11.55-.04.87-.66,2.78-2.1,3.37-2.59.19-.13.26-.21.03-.3Z"></path><path class="cls-1" d="M482.23,263.52l-3.92-.13c-2.24-.11-4.08-.26-5.57-.49-1.59-.23-3.69-.6-6.25-1.13-2.3-.51-4.37-.89-6.54-1.27,1.07-.6,1.78-1.13,2.07-1.59.32-.47.58-1,.81-1.61.23-.62.39-1.36.49-2.25.03-1.57-.29-3.61-.78-5.52.45-.45,1-1.21,1.2-1.59.06-.13.1-.23.1-.32s-.1-.21-.19-.32c-.55-.55-1.33-1.32-1.94-2.78-.13-.21-.23-.32-.42-.32-.39,0-1.26.89-1.85,1.62-.62.76-.81,1.17-.91,1.36-.03.08-.07.17-.07.23,0,.15.07.3.1.4.16.64.75,2.04.91,2.66l1.62,6.54c0,.49-.68.91-2.01,1.27s-2.36.6-3.04.7c-1,.17-1.68.3-2.14.4-.29.06-.52.15-.75.3-2.14,1.32-3.17,2.15-3.17,2.55,0,.15.19.23.58.21,1.72,0,4.15.3,7.29.89,3.14.59,4.96,1.02,5.38,1.25-4.7,1.06-9.94,1.59-15.77,1.62h-.74c-2.2,0-3.53-.38-4.37-1.34-.65-.74-1-1.02-1.39-1.02-.16,0-.39.08-.65.34-.49.49-1.36,2.06-1.36,2.87,0,.17.03.32.13.4.52.42,3.04,2.08,3.04,2.93-.91,3.44-8.23,7.71-15.68,7.71-1.1,0-2.33-.11-3.04-.11-.58,0-.91.11-.91.32,0,.17.19.36,1,.62,2.75.83,6.19,1.61,8.32,1.61.97,0,1.91-.13,2.88-.42,5.44-1.66,7.22-4.82,8.49-6.76.58-.94.87-2.08.87-3.23,0-.17-.03-.36-.03-.53.6.1,1.56.14,2.83.15.02,0,.03,0,.05,0h.78s.08,0,.12,0c2.16-.01,3.98-.14,5.41-.4,1.55-.28,3.69-.72,6.41-1.34,2.72-.62,4.96-1.08,6.67-1.4,1.91-.32,3.76-.49,5.54-.49,3.76.06,6.25.28,6.77.34.55.02.62-.02.91-.28,1.36-1.02,2.4-1.83,3.08-2.42.13-.15,0-.23-.36-.23Z"></path><path class="cls-1" d="M491.59,244.31c-.32,0-.81.47-1.1.81-.97,1.15-2.04,2.76-2.04,3.83,0,2.15,2.59,15.11,2.59,19.78,0,.81.1,1.04.36,1.04.42,0,.84-.6,1.46-1.76.58-1.13.84-3.08.84-5.38,0-5.74-1.42-13.73-1.68-17.09-.06-.94-.13-1.23-.42-1.23Z"></path><path class="cls-1" d="M516.07,251.13c.45.19.62.06.91-.06.58-.28,1.98-1.3,2.69-1.83,1.17.74,2.49,1.45,3.4,1.89.36.17.45.17.71-.04,1.04-.83,2.07-1.59,3.17-2.36.39-.26.39-.32,0-.49-1.23-.55-2.53-1.42-3.66-2.21-.23-.17-.39-.11-.81.17-.58.36-1.88,1.34-2.59,1.89-.94-.34-2.53-1.28-3.4-1.91-.32-.23-.49-.25-.75-.09-1.17.77-2.4,1.68-3.27,2.38-.29.23-.29.32-.06.51.94.81,2.46,1.66,3.66,2.15Z"></path><path class="cls-1" d="M538.42,253.96c5.51-2.47,17.81-5.59,19.43-5.97.16-.04.32-.13.42-.25.45-.53,1.65-1.98,1.65-2.51,0-.11-.07-.17-.23-.17-.26,0-.81.15-1.13.21-2.62.6-9.33,2.17-16.03,4.55-3.4,1.21-5.15,2.04-6.77,3.1-.71.47-.91,1.34-.91,2.15,0,.64.1,1.04.39,1.34.36.36.94.57,1.55.77,4.4,1.4,9.94,5.04,10.04,7.23-1.17.79-6.83,1.81-14.06,1.81h-.45c-.75,0-1.68-.23-2.82-.72-1.81-.81-3.04-2-3.53-3.34-.62-1.59-1.04-4.25-1.85-7.44-.16-.62-.36-.85-.58-.85-.29,0-.62.34-.97.76-.55.64-.88,1.08-.88,1.89,0,.23.03.51.1.83-1.26.62-4.44,1.87-5.54,2.44-2.56,1.36-3.24,1.87-3.98,5.36,0,.83,1.52,1.02,3.27,1.02,2.37,0,4.7-.28,6.19-.96,1.04-.47,1.46-1.02,1.98-1.57.45,2.19,1.52,3.74,3.24,4.7,1.66.93,3.39,1.39,5.18,1.41.03,0,.06.01.1.01h.81s.06,0,.09,0c5.08-.02,9.3-.63,12.61-1.84,2.04-1.25,3.14-3.08,3.14-5.5s-5.15-6.63-10.46-8.44ZM517.98,262.42c-1.04,0-1.75-.13-1.75-.36.19-.47,3.92-1.98,6.15-2.91.36,1.19.49,1.57.71,2.51-1.52.51-3.63.76-5.12.76Z"></path><path class="cls-1" d="M589.22,257.68c.45.19.62.06.91-.06.58-.28,1.98-1.3,2.69-1.83,1.17.74,2.49,1.45,3.4,1.89.36.17.45.17.71-.04,1.04-.83,2.07-1.59,3.17-2.36.39-.26.39-.32,0-.49-1.23-.55-2.53-1.42-3.66-2.21-.23-.17-.39-.11-.81.17-.58.36-1.88,1.34-2.59,1.89-.94-.34-2.53-1.27-3.4-1.91-.32-.23-.49-.26-.74-.09-1.17.76-2.4,1.68-3.27,2.38-.29.23-.29.32-.06.51.94.81,2.46,1.66,3.66,2.15Z"></path><path class="cls-1" d="M592.53,250.56c.26.11.36.11.55-.04.87-.66,2.78-2.1,3.37-2.59.19-.13.26-.21.03-.3-1.65-.7-3.37-1.7-4.28-2.34-.16-.11-.26-.08-.71.21-.94.62-2.3,1.64-3.08,2.42-.16.19-.16.21,0,.38.62.64,3.01,1.83,4.11,2.25Z"></path><path class="cls-1" d="M614.75,248.1c.03-.09.06-.15.06-.21,0-.17-.13-.32-.26-.47-.55-.55-1.3-1.32-1.94-2.85-.13-.21-.23-.32-.42-.32-.45,0-1.04.62-1.68,1.42-.49.6-1.26,1.66-1.26,2.06,0,.11.03.23.06.36.19.74.84,2.68.91,3.29.68,5.48,2.14,11.11,2.2,13.81-.19.23-.74.47-1.65.66-1.04.23-2.2.34-3.47.34h-.61c-2.01,0-3.17-.94-3.34-2.7-.06-.76-.19-.96-.52-.96-.29,0-.45.08-1.1,1-.87,1.17-2.14,2.38-4.28,2.38-1.33,0-2.82-.51-2.82-1.83,0-.23.03-.45.03-.87,0-.3-.1-.55-.42-.55s-.49.15-.74.49c-1.49,1.85-3.82,2.76-6.48,2.76-2.46-.02-3.21-.53-3.69-1.1-.45-.53-.71-1.21-.78-2.04,0-.15-.06-.23-.39-.17-3.69.81-8.03,1.85-10.75,2.59-.32.08-.39.21-.52.4-.32.53-.91,1.85-1.13,2.51-.07.21-.07.25.06.38.26.25.65.53,1.1,1.04.62.62.94,1.15,1.04,1.51,0,.06.03.15.03.21,0,1.93-4.4,4.74-7.55,6.06-1.98.85-4.21,1.4-6.02,1.53-.29.02-.58.02-.88.02-1.17,0-3.11-.23-4.18-.23-.55,0-.87.09-.87.28,0,.15.29.38,1.07.62,3.14.89,6.87,1.55,9.17,1.55.62,0,1.13-.04,1.52-.15,5.02-1.23,8.39-4.51,9.26-7.91.29-1.15.45-2.04.45-2.87,0-.7-.06-1.19-.36-1.89,1.62-.6,5.15-1.47,7-1.79.71,2.08,2.23,3.19,5.63,3.19,3.01,0,5.34-1.32,6.32-2.89.49,1.95,2.11,3,4.02,3,2.88,0,4.92-2.02,5.34-3.04.75,2.02,2.33,3.02,4.76,3.02h1c.18,0,.35-.01.51-.02,2.07-.11,3.39-.65,4.51-1.59,1.59-1.57,2.4-3.63,2.4-6.21s-1.3-6.86-1.68-12.16c.45-.4,1.13-1.3,1.33-1.68Z"></path><path class="cls-1" d="M626.6,245.54c-.06-.94-.13-1.23-.42-1.23-.32,0-.81.47-1.1.81-.97,1.15-2.04,2.76-2.04,3.83,0,2.15,2.59,15.11,2.59,19.78,0,.81.1,1.04.36,1.04.42,0,.84-.6,1.46-1.76.58-1.13.84-3.08.84-5.38,0-5.74-1.43-13.73-1.68-17.09Z"></path></g></g></g></svg>